<?xml version="1.0" standalone="no"?>
<!DOCTYPE svg PUBLIC "-//W3C//DTD SVG 20010904//EN"
 "http://www.w3.org/TR/2001/REC-SVG-20010904/DTD/svg10.dtd">
<svg version="1.0" xmlns="http://www.w3.org/2000/svg"
 width="128.000000pt" height="128.000000pt" viewBox="0 0 128.000000 128.000000"
 preserveAspectRatio="xMidYMid meet">

<g transform="translate(0.000000,128.000000) scale(0.100000,-0.100000)"
fill="#b33702" stroke="none">
<path d="M550 1269 c-242 -47 -398 -332 -309 -566 17 -46 361 -667 381 -688
18 -19 18 -19 36 0 20 21 364 642 381 688 56 148 14 335 -101 450 -103 103
-242 145 -388 116z m195 -233 c122 -66 141 -244 35 -340 -144 -130 -364 -16
-348 179 13 152 175 236 313 161z"/>
</g>
</svg>
